<svg width="600" height="540" viewBox="0 0 600 540" fill="none" xmlns="http://www.w3.org/2000/svg">
<path d="M540 0C573.137 7.73112e-06 600 26.8629 600 60V480C600 513.137 573.137 540 540 540H60C26.8629 540 2.41629e-07 513.137 0 480V60C0 26.8629 26.8629 4.83195e-07 60 0H540ZM100 120C77.9086 120 60 137.909 60 160V440C60 462.091 77.9086 480 100 480H500C522.091 480 540 462.091 540 440V160C540 137.909 522.091 120 500 120H100Z" fill="white"/>
<path d="M195 413H148.5C144.7 413 141.9 412.2 140.1 410.6C138.5 408.8 137.7 406 137.7 402.2V207.8C137.7 204 138.5 201.3 140.1 199.7C141.9 197.9 144.7 197 148.5 197H282.3C286.1 197 288.8 197.9 290.4 199.7C292.2 201.3 293.1 204 293.1 207.8V243.5C293.1 247.3 292.2 250.1 290.4 251.9C288.8 253.5 286.1 254.3 282.3 254.3H205.8V285.5H258C261.8 285.5 264.5 286.4 266.1 288.2C267.9 289.8 268.8 292.5 268.8 296.3V332.3C268.8 336.1 267.9 338.9 266.1 340.7C264.5 342.3 261.8 343.1 258 343.1H205.8V402.2C205.8 406 204.9 408.8 203.1 410.6C201.5 412.2 198.8 413 195 413ZM460.249 413H327.649C323.849 413 321.049 412.2 319.249 410.6C317.649 408.8 316.849 406 316.849 402.2V365.9C316.849 362.1 317.649 359.4 319.249 357.8C321.049 356 323.849 355.1 327.649 355.1H361.249V254.9H333.649C329.849 254.9 327.049 254.1 325.249 252.5C323.649 250.7 322.849 247.9 322.849 244.1V207.8C322.849 204 323.649 201.3 325.249 199.7C327.049 197.9 329.849 197 333.649 197H420.649C424.449 197 427.149 197.9 428.749 199.7C430.549 201.3 431.449 204 431.449 207.8V355.1H460.249C464.049 355.1 466.749 356 468.349 357.8C470.149 359.4 471.049 362.1 471.049 365.9V402.2C471.049 406 470.149 408.8 468.349 410.6C466.749 412.2 464.049 413 460.249 413Z" fill="#E10600"/>
</svg>
