<svg width="1024" height="1024" viewBox="0 0 1024 1024" fill="none" xmlns="http://www.w3.org/2000/svg">
<path d="M921.6 51.2002C978.154 51.2002 1024 97.0462 1024 153.6V870.4C1024 926.954 978.154 972.8 921.6 972.8H102.4C45.8461 972.8 4.1238e-07 926.954 0 870.4V153.6C0 97.0462 45.846 51.2002 102.4 51.2002H921.6ZM170.667 256C132.964 256 102.4 286.564 102.4 324.267V802.133C102.4 839.836 132.964 870.4 170.667 870.4H853.333C891.036 870.4 921.6 839.836 921.6 802.133V324.267C921.6 286.564 891.036 256 853.333 256H170.667Z" fill="white"/>
<path d="M785.492 756.053H559.188C552.703 756.053 547.924 754.688 544.852 751.957C542.121 748.885 540.756 744.106 540.756 737.621V675.669C540.756 669.184 542.121 664.576 544.852 661.845C547.924 658.773 552.703 657.237 559.188 657.237H616.532V486.229H569.428C562.943 486.229 558.164 484.864 555.092 482.133C552.361 479.061 550.996 474.282 550.996 467.797V405.845C550.996 399.36 552.361 394.752 555.092 392.021C558.164 388.949 562.943 387.413 569.428 387.413H717.908C724.393 387.413 729.001 388.949 731.732 392.021C734.804 394.752 736.34 399.36 736.34 405.845V657.237H785.492C791.977 657.237 796.585 658.773 799.316 661.845C802.388 664.576 803.924 669.184 803.924 675.669V737.621C803.924 744.106 802.388 748.885 799.316 751.957C796.585 754.688 791.977 756.053 785.492 756.053Z" fill="white"/>
<path d="M332.8 756.053H253.44C246.954 756.053 242.176 754.688 239.104 751.957C236.373 748.885 235.008 744.106 235.008 737.621V405.845C235.008 399.36 236.373 394.752 239.104 392.021C242.176 388.949 246.954 387.413 253.44 387.413H481.792C488.277 387.413 492.885 388.949 495.616 392.021C498.688 394.752 500.224 399.36 500.224 405.845V466.773C500.224 473.258 498.688 478.037 495.616 481.109C492.885 483.84 488.277 485.205 481.792 485.205H351.232V538.453H440.32C446.805 538.453 451.413 539.989 454.144 543.061C457.216 545.792 458.752 550.4 458.752 556.885V618.325C458.752 624.81 457.216 629.589 454.144 632.661C451.413 635.392 446.805 636.757 440.32 636.757H351.232V737.621C351.232 744.106 349.696 748.885 346.624 751.957C343.893 754.688 339.285 756.053 332.8 756.053Z" fill="white"/>
</svg>
