<svg width="1024" height="1024" viewBox="0 0 1024 1024" fill="none" xmlns="http://www.w3.org/2000/svg">
<rect width="1024" height="1024" fill="black"/>
<path d="M921.6 51C978.154 51 1024 96.866 1024 153.444V870.556C1024 927.134 978.154 973 921.6 973H102.4C45.8461 973 4.1238e-07 927.134 0 870.556V153.444C0 96.8659 45.846 51 102.4 51H921.6ZM170.667 255.889C132.964 255.889 102.4 286.466 102.4 324.185V802.259C102.4 839.978 132.964 870.556 170.667 870.556H853.333C891.036 870.556 921.6 839.978 921.6 802.259V324.185C921.6 286.466 891.036 255.889 853.333 255.889H170.667Z" fill="white"/>
<path d="M785.6 756.086H559.265C552.778 756.086 547.999 754.721 544.927 751.99C542.196 748.918 540.83 744.138 540.83 737.652V675.691C540.83 669.205 542.196 664.597 544.927 661.866C547.999 658.793 552.778 657.257 559.265 657.257H616.617V486.226H569.506C563.02 486.226 558.241 484.86 555.168 482.129C552.437 479.057 551.072 474.277 551.072 467.791V405.831C551.072 399.344 552.437 394.736 555.168 392.005C558.241 388.932 563.02 387.396 569.506 387.396H718.006C724.493 387.396 729.101 388.932 731.832 392.005C734.905 394.736 736.441 399.344 736.441 405.831V657.257H785.6C792.086 657.257 796.695 658.793 799.426 661.866C802.498 664.597 804.034 669.205 804.034 675.691V737.652C804.034 744.138 802.498 748.918 799.426 751.99C796.695 754.721 792.086 756.086 785.6 756.086Z" fill="white"/>
<path d="M332.845 756.086H253.475C246.988 756.086 242.209 754.721 239.137 751.99C236.406 748.918 235.04 744.138 235.04 737.652V405.831C235.04 399.344 236.406 394.736 239.137 392.005C242.209 388.932 246.988 387.396 253.475 387.396H481.858C488.344 387.396 492.953 388.932 495.684 392.005C498.756 394.736 500.292 399.344 500.292 405.831V466.767C500.292 473.253 498.756 478.032 495.684 481.105C492.953 483.836 488.344 485.201 481.858 485.201H351.28V538.457H440.38C446.866 538.457 451.475 539.993 454.206 543.065C457.279 545.796 458.815 550.405 458.815 556.891V618.34C458.815 624.826 457.279 629.605 454.206 632.678C451.475 635.409 446.866 636.774 440.38 636.774H351.28V737.652C351.28 744.138 349.744 748.918 346.671 751.99C343.94 754.721 339.332 756.086 332.845 756.086Z" fill="white"/>
</svg>
