<svg width="1017" height="906" viewBox="0 0 1017 906" fill="none" xmlns="http://www.w3.org/2000/svg">
<path d="M187.933 0C172.163 0 159.335 12.8292 159.335 28.5978V93.9658V163.42C159.335 179.19 172.163 192.018 187.933 192.018H212.447C228.217 192.018 241.045 179.189 241.045 163.42V93.9658V28.5978C241.045 12.8292 228.217 0 212.445 0H187.933Z" fill="white"/>
<path d="M637.339 0C621.568 0 608.741 12.8292 608.741 28.5978V93.9658V163.42C608.741 179.19 621.57 192.018 637.339 192.018H661.852C677.622 192.018 690.45 179.189 690.45 163.42V93.9658V28.5978C690.45 12.8292 677.621 0 661.85 0H637.339Z" fill="white"/>
<path d="M65.368 845.696H456.922V763.987H122.565C95.4868 763.987 73.5385 742.039 73.5385 714.96V322.753H776.245V485.684H849.784V159.333C849.784 123.233 820.516 93.9648 784.416 93.9648H731.304V163.419C731.304 201.717 700.15 232.873 661.85 232.873H637.337C599.039 232.873 567.883 201.717 567.883 163.419V93.9648H281.899V163.419C281.899 201.717 250.743 232.873 212.445 232.873H187.932C149.634 232.873 118.478 201.717 118.478 163.419V93.9648H65.368C29.2678 93.9648 0 123.234 0 159.333V780.328C0 816.429 29.2678 845.696 65.368 845.696Z" fill="white"/>
<path d="M230.324 510.181C266.147 510.181 295.186 481.142 295.186 445.319C295.186 409.497 266.147 380.457 230.324 380.457C194.502 380.457 165.462 409.497 165.462 445.319C165.462 481.142 194.502 510.181 230.324 510.181Z" fill="white"/>
<path d="M424.892 510.181C460.714 510.181 489.754 481.142 489.754 445.319C489.754 409.497 460.714 380.457 424.892 380.457C389.069 380.457 360.03 409.497 360.03 445.319C360.03 481.142 389.069 510.181 424.892 510.181Z" fill="white"/>
<path d="M619.461 510.181C655.283 510.181 684.323 481.142 684.323 445.319C684.323 409.497 655.283 380.457 619.461 380.457C583.639 380.457 554.599 409.497 554.599 445.319C554.599 481.142 583.639 510.181 619.461 510.181Z" fill="white"/>
<path d="M424.892 706.283C460.713 706.283 489.752 677.244 489.752 641.423C489.752 605.601 460.713 576.562 424.892 576.562C389.07 576.562 360.031 605.601 360.031 641.423C360.031 677.244 389.07 706.283 424.892 706.283Z" fill="white"/>
<path d="M230.324 706.283C266.146 706.283 295.185 677.244 295.185 641.423C295.185 605.601 266.146 576.562 230.324 576.562C194.503 576.562 165.464 605.601 165.464 641.423C165.464 677.244 194.503 706.283 230.324 706.283Z" fill="white"/>
<path d="M835.713 627.794C857.328 624.656 876.851 618.207 894.283 608.445C912.063 598.683 926.182 587.179 936.641 573.931H1016.65L945.531 906H832.575L884.347 662.831H827.869L835.713 627.794Z" fill="white"/>
<path d="M609.229 573.931H829.389L821.022 613.674H713.818L693.423 709.373H782.847L774.48 749.64H685.056L651.588 906H538.632L609.229 573.931Z" fill="white"/>
</svg>
