<svg xmlns:xlink="http://www.w3.org/1999/xlink" xmlns="http://www.w3.org/2000/svg" width="1697" height="1697" viewBox="0 0 604 604" fill="none" role="presentation"><title fill="none"></title><g class="colors-module_fill_colour-static-static-1__29U2y" fill="#FFFFFF"><path d="M498.887 64.6914L563.251 0.324951H547.162L482.793 64.6914H498.887Z" fill="#FFFFFF"></path><path d="M373.131 138.985H389.222L463.51 64.6914H447.422L373.131 138.985Z" fill="#FFFFFF"></path><path d="M539.408 94.5181H507.037L398.811 202.749H431.181L539.408 94.5181Z" fill="#FFFFFF"></path><path d="M502.781 94.5181H468.244L360.024 202.742H349.31L210.479 341.581H221.802L360.629 202.749H394.555L502.781 94.5181Z" fill="#FFFFFF"></path><path d="M267.781 370.643L376.011 262.417H341.469L233.243 370.643H267.781Z" fill="#FFFFFF"></path><path d="M90.6777 237.31L283.362 44.6238H248.82L56.1357 237.31H90.6777Z" fill="#FFFFFF"></path><path d="M87.8858 112.728L200.286 0.324951H183.117L70.7139 112.728H87.8858Z" fill="#FFFFFF"></path><path d="M545.048 0.324951H527.878L463.51 64.6914H480.682L545.048 0.324951Z" fill="#FFFFFF"></path><path d="M0 282.12V293.438L56.1353 237.31H44.8123L0 282.12Z" fill="#FFFFFF"></path><path d="M353.848 138.985H371.017L445.311 64.6914H428.139L353.848 138.985Z" fill="#FFFFFF"></path><path d="M30.5937 308.631L0 339.225V355.318L46.6874 308.631H30.5937Z" fill="#FFFFFF"></path><path d="M279.76 155.594H255.605L3.58594 407.605H27.7468L279.76 155.594Z" fill="#FFFFFF"></path><path d="M0 180.65V196.742L65.027 131.713H48.9354L0 180.65Z" fill="#FFFFFF"></path><path d="M94.9258 237.31H127.297L319.98 44.6238H287.612L94.9258 237.31Z" fill="#FFFFFF"></path><path d="M0 319.943V337.113L28.4821 308.631H11.3102L0 319.943Z" fill="#FFFFFF"></path><path d="M196.664 380.474L86.1133 491.025H97.4362L207.987 380.474H196.664Z" fill="#FFFFFF"></path><path d="M31.2457 237.31L0 268.555V280.635L43.325 237.31H31.2457Z" fill="#FFFFFF"></path><path d="M269.289 204.999H278.292L344.305 138.985H335.303L269.289 204.999Z" fill="#FFFFFF"></path><path d="M151.994 341.575L218.008 275.563H209.005L142.998 341.575H151.994Z" fill="#FFFFFF"></path><path d="M279.4 204.999H287.834L353.848 138.985H345.412L279.4 204.999Z" fill="#FFFFFF"></path><path d="M603.206 402.161H591.889L500.253 493.797H511.569L603.206 402.161Z" fill="#FFFFFF"></path><path d="M93.5768 548.891L38.1426 604.325H54.2342L109.664 548.891H93.5768Z" fill="#FFFFFF"></path><path d="M558.188 382.925L604 337.113V319.943L541.022 382.925H558.188Z" fill="#FFFFFF"></path><path d="M587.604 298.54H598.926L604 293.466V282.143L587.604 298.54Z" fill="#FFFFFF"></path><path d="M604 339.225L560.3 382.925H576.394L604 355.318V339.225Z" fill="#FFFFFF"></path><path d="M54.2343 0.324951H38.1427L19.2832 19.1844H35.3769L54.2343 0.324951Z" fill="#FFFFFF"></path><path d="M88.214 0.324951H79.2115L29.6816 49.8548H38.6842L88.214 0.324951Z" fill="#FFFFFF"></path><path d="M29.6817 49.8547H18.3651L0 68.2199V79.5364L29.6817 49.8547Z" fill="#FFFFFF"></path><path d="M0 54.6532V66.7283L16.8736 49.8547H4.80064L0 54.6532Z" fill="#FFFFFF"></path><path d="M486.686 493.797H498.761L590.397 402.161H578.324L486.686 493.797Z" fill="#FFFFFF"></path><path d="M204.68 454.276L130.393 528.569H146.48L220.767 454.282H232.847L316.486 370.643H304.404L220.772 454.276H204.68Z" fill="#FFFFFF"></path><path d="M314.366 434.956L144.999 604.325H161.093L330.46 434.956H314.366Z" fill="#FFFFFF"></path><path d="M380.262 262.417L272.036 370.643H304.405L412.631 262.417H380.262Z" fill="#FFFFFF"></path><path d="M268.638 581.3H291.277L574.037 298.54H551.398L268.638 581.3Z" fill="#FFFFFF"></path><path d="M74.2936 548.891L18.8594 604.325H36.0292L91.457 548.891H74.2936Z" fill="#FFFFFF"></path><path d="M375.214 545.341L525.362 395.2H508.192L358.049 545.341H375.214Z" fill="#FFFFFF"></path><path d="M574.037 298.54H586.119L604 280.658V268.579L574.037 298.54Z" fill="#FFFFFF"></path><path d="M317.971 370.643L234.332 454.282H245.655L329.294 370.643H317.971Z" fill="#FFFFFF"></path><path d="M295.083 434.956L125.716 604.325H142.886L312.254 434.956H295.083Z" fill="#FFFFFF"></path><path d="M282.737 155.594L30.7197 407.605H53.3592L305.377 155.594H282.737Z" fill="#FFFFFF"></path><path d="M143.934 548.605H134.932L79.2119 604.325H88.2144L143.934 548.605Z" fill="#FFFFFF"></path><path d="M223.311 581.3H206.139L183.116 604.325H200.286L223.311 581.3Z" fill="#FFFFFF"></path><path d="M0 161.367V178.535L46.8216 131.713H29.6519L0 161.367Z" fill="#FFFFFF"></path><path d="M527.475 395.2L377.326 545.341H393.42L543.567 395.2H527.475Z" fill="#FFFFFF"></path><path d="M548.428 298.54H524.267L241.511 581.3H265.667L548.428 298.54Z" fill="#FFFFFF"></path><path d="M241.511 581.3H225.423L202.4 604.325H218.49L241.511 581.3Z" fill="#FFFFFF"></path><path d="M72.5486 491.025H84.628L195.179 380.474H183.1L72.5465 491.025H56.4591L0 547.487V563.576L72.5486 491.025Z" fill="#FFFFFF"></path><path d="M39.792 49.8548H48.232L97.7576 0.324951H89.3219L39.792 49.8548Z" fill="#FFFFFF"></path><path d="M106.06 19.9813H123.231L142.886 0.324951H125.716L106.06 19.9813Z" fill="#FFFFFF"></path><path d="M54.3475 491.025H37.1756L0 528.203V545.373L54.3475 491.025Z" fill="#FFFFFF"></path><path d="M604 493.574V484.573L548.05 540.523H557.052L604 493.574Z" fill="#FFFFFF"></path><path d="M558.16 540.523H566.594L603.999 503.117V494.684L558.16 540.523Z" fill="#FFFFFF"></path><path d="M604.001 563.576V547.487L547.162 604.325H563.254L604.001 563.576Z" fill="#FFFFFF"></path><path d="M36.0293 0.324951H18.8595L0 19.1844H17.1698L36.0293 0.324951Z" fill="#FFFFFF"></path><path d="M604 545.373V528.203L527.878 604.325H545.048L604 545.373Z" fill="#FFFFFF"></path><path d="M418.31 545.341H406.987L348.007 604.325H359.326L418.31 545.341Z" fill="#FFFFFF"></path><path d="M591.19 460.129H579.117L434.917 604.325H446.996L591.19 460.129Z" fill="#FFFFFF"></path><path d="M405.502 545.341H393.42L334.44 604.325H346.518L405.502 545.341Z" fill="#FFFFFF"></path><path d="M604 460.129H592.681L448.483 604.325H459.804L604 460.129Z" fill="#FFFFFF"></path><path d="M125.343 19.9813H141.437L161.093 0.324951H144.999L125.343 19.9813Z" fill="#FFFFFF"></path><path d="M153.473 548.605H145.04L89.3223 604.325H97.758L153.473 548.605Z" fill="#FFFFFF"></path><path d="M119.916 418.579L196.914 341.575H180.826L103.822 418.579H115.269H119.916Z" fill="#FFFFFF"></path><path d="M202.566 454.276H185.397L111.109 528.57H128.279L202.566 454.276Z" fill="#FFFFFF"></path><path d="M527.54 225.068H515.46L379.864 360.669H391.946L527.54 225.068Z" fill="#FFFFFF"></path><path d="M347.825 202.742H335.746L196.913 341.575L208.995 341.581L347.825 202.742Z" fill="#FFFFFF"></path><path d="M66.0135 418.562L0 484.573V493.574L75.0097 418.562H66.0135Z" fill="#FFFFFF"></path><path d="M514.867 187.952L440.58 262.246H456.667L530.961 187.952H514.867Z" fill="#FFFFFF"></path><path d="M76.1219 418.562L0 494.684V503.118L84.5555 418.562H76.1219Z" fill="#FFFFFF"></path><path d="M219.116 275.563L153.103 341.575H161.543L227.556 275.563H219.116Z" fill="#FFFFFF"></path><path d="M178.712 341.575H161.543L84.5557 418.562L101.708 418.579L178.712 341.575Z" fill="#FFFFFF"></path><path d="M328.425 19.9068H339.741L359.323 0.324951H348.007L328.425 19.9068Z" fill="#FFFFFF"></path><path d="M89.9971 112.728H106.091L218.489 0.324951H202.4L89.9971 112.728Z" fill="#FFFFFF"></path><path d="M324.832 110.407H336.914L446.996 0.324951H434.919L324.832 110.407Z" fill="#FFFFFF"></path><path d="M338.399 110.407H349.722L459.805 0.324951H448.484L338.399 110.407Z" fill="#FFFFFF"></path><path d="M314.858 19.9068H326.933L346.515 0.324951H334.44L314.858 19.9068Z" fill="#FFFFFF"></path><path d="M484.268 187.952H495.584L604 79.5365V68.22L484.268 187.952Z" fill="#FFFFFF"></path><path d="M438.46 262.246L512.754 187.952H495.584L421.297 262.246H438.46Z" fill="#FFFFFF"></path><path d="M470.701 187.952H482.776L604 66.7284V54.6533L470.701 187.952Z" fill="#FFFFFF"></path><path d="M559.591 225.087H575.685L604 196.769V180.674L559.591 225.087Z" fill="#FFFFFF"></path><path d="M540.331 225.088H557.477L604 178.56V161.395L540.324 225.068H529.025L393.431 360.669H404.747L540.331 225.088Z" fill="#FFFFFF"></path></g></svg>